:SAMPLES-PER-SECOND 30
:FULLY-SPECIFIED
:DEGREES
772
root  -7.55038 40.0788 12.6976 176.414 -1.16701 -178.46
RightUpLeg  -4.4525 2.87621 -12.6841
RightLeg  15.6189 2.50302 0.583122
RightFoot  2.02135 -1.55718 13.3554
RightToes  -5.8209e-011 0 -3.6325e-017
Spine  3.26902 -0.12552 -9.25934
Spine1  11.7625 -3.80767 10.3556
HEad  -5.36648 -5.76852 0.689605
LeftShoulder1  6.71533 -14.3542 -31.5849
LeftArm  15.717 15.5757 -41.5638
LeftForeArm  -12.8347 -60.3769 -21.5101
LeftHand  -0.246645 0.021 5.37786
RightShoulder  6.678 13.7731 32.7056
RightArm  21.9811 6.08274 38.1474
RightForeArm  21.7418 51.3869 12.3731
RightHand  -0.24729 -0.0210522 -5.37781
LeftUpLeg  -0.880404 8.80685 2.01469
LeftLeg  10.6205 5.43455 -4.07494
LeftFoot  -6.17227 -0.0735287 2.45272
LeftToes  -7.45818e-011 -3.37383e-011 1.08613e-011
773
root  -7.45293 40.1062 12.7352 176.87 0.0648651 -178.384
RightUpLeg  -4.0723 2.11018 -11.8489
RightLeg  13.7417 3.23231 0.510707
RightFoot  1.12804 -1.44282 13.2243
RightToes  -5.8209e-011 0 -3.6325e-017
Spine  3.17308 -0.256326 -9.93864
Spine1  11.4475 -4.00147 10.8198
HEad  -5.24443 -4.42642 0.529427
LeftShoulder1  6.57767 -14.1756 -31.1848
LeftArm  16.9934 15.5252 -40.649
LeftForeArm  -13.8053 -59.1392 -20.4593
LeftHand  -0.246645 0.021 5.37786
RightShoulder  6.68169 13.7571 32.763
RightArm  20.8986 4.50417 36.0858
RightForeArm  21.7262 51.0146 12.1956
RightHand  -0.24729 -0.0210522 -5.37781
LeftUpLeg  -1.2282 8.86623 2.21121
LeftLeg  10.3899 6.45281 -3.87575
LeftFoot  -6.08866 -0.0620743 2.1527
LeftToes  -7.45818e-011 -3.37383e-011 1.08613e-011
774
root  -7.3552 40.1308 12.7575 177.169 1.18771 -178.32
RightUpLeg  -3.54523 0.783737 -10.944
RightLeg  12.0772 4.44979 0.265155
RightFoot  0.30211 -1.34756 13.1832
RightToes  -5.8209e-011 0 -3.6325e-017
Spine  3.14297 -0.377937 -10.5143
Spine1  11.2658 -4.20546 11.2482
HEad  -5.114 -3.14754 0.180401
LeftShoulder1  6.47702 -14.0242 -30.9309
LeftArm  18.0816 15.5604 -39.7263
LeftForeArm  -14.3166 -58.0274 -19.5648
LeftHand  -0.246645 0.021 5.37786
RightShoulder  6.64215 13.6983 32.666
RightArm  20.1074 2.97976 34.1768
RightForeArm  21.4689 50.3858 11.9213
RightHand  -0.24729 -0.0210522 -5.37781
LeftUpLeg  -1.3875 8.9435 2.41705
LeftLeg  10.1829 7.38979 -3.69261
LeftFoot  -6.01922 -0.0514562 1.88715
LeftToes  -7.45818e-011 -3.37383e-011 1.08613e-011
775
root  -7.2574 40.1531 12.7645 177.356 2.32326 -178.239
RightUpLeg  -3.0202 -0.153036 -10.0258
RightLeg  10.75 5.78544 0.0453493
RightFoot  -0.427839 -1.26082 13.1144
RightToes  -5.8209e-011 0 -3.6325e-017
Spine  3.11208 -0.445609 -10.8276
Spine1  11.2106 -4.31824 11.4722
HEad  -5.06172 -1.76274 -0.194762
LeftShoulder1  6.40182 -13.8864 -30.7908
LeftArm  18.7609 15.7106 -38.84
LeftForeArm  -14.5258 -56.9437 -18.7349
LeftHand  -0.246645 0.021 5.37786
RightShoulder  6.57691 13.6133 32.4772
RightArm  19.3241 1.41836 32.393
RightForeArm  21.1492 49.59 11.585
RightHand  -0.24729 -0.0210522 -5.37781
LeftUpLeg  -1.3931 9.03656 2.65579
LeftLeg  9.98797 8.33611 -3.50079
LeftFoot  -5.95979 -0.042626 1.6708
LeftToes  -7.45818e-011 -3.37383e-011 1.08613e-011
776
root  -7.14575 40.1709 12.7595 177.525 3.46338 -178.127
RightUpLeg  -2.60156 -0.360892 -9.08172
RightLeg  9.76327 7.16036 -0.110091
RightFoot  -1.10806 -1.17773 13.0165
RightToes  -5.8209e-011 0 -3.6325e-017
Spine  3.03815 -0.462735 -10.9125
Spine1  11.1777 -4.32099 11.4801
HEad  -5.10023 -0.268697 -0.456556
LeftShoulder1  6.31585 -13.7281 -30.6293
LeftArm  19.1051 15.983 -38.1098
LeftForeArm  -14.733 -55.748 -17.8799
LeftHand  -0.246645 0.021 5.37786
RightShoulder  6.52141 13.5324 32.3344
RightArm  18.3525 -0.250562 30.7036
RightForeArm  20.9723 48.6616 11.1929
RightHand  -0.24729 -0.0210522 -5.37781
LeftUpLeg  -1.36665 9.20662 2.98528
LeftLeg  9.85035 9.20967 -3.36011
LeftFoot  -5.93958 -0.0328707 1.45455
LeftToes  -7.45818e-011 -3.37383e-011 1.08613e-011
777
root  -7.02011 40.1811 12.7452 177.691 4.42197 -178.063
RightUpLeg  -2.24435 -0.177919 -8.22783
RightLeg  9.07783 8.6356 -0.177792
RightFoot  -1.83799 -1.094 12.9591
RightToes  -5.8209e-011 0 -3.6325e-017
Spine  2.94247 -0.507068 -10.9693
Spine1  11.1456 -4.3347 11.4136
HEad  -5.15124 1.12143 -0.678957
LeftShoulder1  6.22382 -13.5528 -30.4658
LeftArm  19.3161 16.3345 -37.4718
LeftForeArm  -14.9367 -54.6156 -17.1245
LeftHand  -0.246645 0.021 5.37786
RightShoulder  6.46766 13.4378 32.2316
RightArm  17.2911 -1.90455 29.2064
RightForeArm  20.6461 47.5119 10.7374
RightHand  -0.24729 -0.0210522 -5.37781
LeftUpLeg  -1.36807 9.39336 3.29399
LeftLeg  9.79904 9.91697 -3.26314
LeftFoot  -5.96129 -0.0218296 1.22968
LeftToes  -7.45818e-011 -3.37383e-011 1.08613e-011
778
root  -6.88896 40.1871 12.7224 177.828 5.07806 -178.12
RightUpLeg  -1.91606 0.0767231 -7.57975
RightLeg  8.70548 9.96765 -0.16488
RightFoot  -2.64266 -0.998115 12.8344
RightToes  -5.8209e-011 0 -3.6325e-017
Spine  2.82156 -0.627751 -11.1192
Spine1  11.1704 -4.44664 11.3889
HEad  -5.1343 2.30081 -0.96782
LeftShoulder1  6.15332 -13.3932 -30.3934
LeftArm  19.5358 16.7339 -36.7886
LeftForeArm  -14.9843 -53.7914 -16.5991
LeftHand  -0.246645 0.021 5.37786
RightShoulder  6.38935 13.3001 32.0789
RightArm  16.2894 -3.43812 28.0031
RightForeArm  19.9018 46.1091 10.2356
RightHand  -0.24729 -0.0210522 -5.37781
LeftUpLeg  -1.3735 9.46876 3.44064
LeftLeg  9.76127 10.4617 -3.14873
LeftFoot  -5.96241 -0.0108891 0.996385
LeftToes  -7.45818e-011 -3.37383e-011 1.08613e-011
779
root  -6.74536 40.195 12.6897 177.968 5.49448 -178.249
RightUpLeg  -1.66068 0.382296 -7.06681
RightLeg  8.55939 10.7201 -0.180729
RightFoot  -3.4145 -0.883799 12.3705
RightToes  -5.8209e-011 0 -3.6325e-017
Spine  2.5939 -0.788335 -11.3364
Spine1  11.2842 -4.6176 11.4388
HEad  -5.0595 3.42036 -1.28755
LeftShoulder1  6.10193 -13.2664 -30.3628
LeftArm  19.7719 17.1735 -36.1379
LeftForeArm  -14.9373 -53.203 -16.2337
LeftHand  -0.246645 0.021 5.37786
RightShoulder  6.29903 13.1489 31.8824
RightArm  15.3307 -4.94184 27.0277
RightForeArm  19.0482 44.5563 9.71396
RightHand  -0.24729 -0.0210522 -5.37781
LeftUpLeg  -1.37118 9.45217 3.49752
LeftLeg  9.65744 10.8397 -3.03624
LeftFoot  -5.90337 0.00153637 0.716269
LeftToes  -7.45818e-011 -3.37383e-011 1.08613e-011
780
root  -6.57688 40.2065 12.6456 178.13 5.76651 -178.361
RightUpLeg  -1.4702 0.690435 -6.57011
RightLeg  8.41298 10.8348 -0.337498
RightFoot  -3.95628 -0.764232 11.3875
RightToes  -5.8209e-011 0 -3.6325e-017
Spine  2.22921 -0.939681 -11.562
Spine1  11.4798 -4.78992 11.5621
HEad  -5.01274 4.58745 -1.57825
LeftShoulder1  6.04376 -13.1556 -30.2547
LeftArm  19.9606 17.6043 -35.7303
LeftForeArm  -14.9033 -52.5854 -15.8634
LeftHand  -0.246645 0.021 5.37786
RightShoulder  6.23121 13.0382 31.7258
RightArm  14.3689 -6.50664 26.1467
RightForeArm  18.358 42.9315 9.18632
RightHand  -0.24729 -0.0210522 -5.37781
LeftUpLeg  -1.34247 9.4718 3.63177
LeftLeg  9.47521 11.0041 -3.0073
LeftFoot  -5.80881 0.0161232 0.390043
LeftToes  -7.45818e-011 -3.37383e-011 1.08613e-011
781
root  -6.39018 40.221 12.5897 178.232 5.90488 -178.473
RightUpLeg  -1.25318 0.80393 -6.12717
RightLeg  8.16799 10.7609 -0.592547
RightFoot  -4.1396 -0.657343 9.97706
RightToes  -5.8209e-011 0 -3.6325e-017
Spine  1.86692 -1.07588 -11.773
Spine1  11.7129 -4.9633 11.7424
HEad  -5.03408 5.64432 -1.8803
LeftShoulder1  5.97563 -13.036 -30.1038
LeftArm  20.0996 17.9643 -35.5735
LeftForeArm  -14.7376 -51.849 -15.4285
LeftHand  -0.246645 0.021 5.37786
RightShoulder  6.18236 12.9546 31.6201
RightArm  13.4975 -8.03053 25.3812
RightForeArm  17.5388 41.149 8.64612
RightHand  -0.24729 -0.0210522 -5.37781
LeftUpLeg  -1.18558 9.5346 3.83095
LeftLeg  9.19319 10.9962 -3.06689
LeftFoot  -5.6808 0.0291251 0.10248
LeftToes  -7.45818e-011 -3.37383e-011 1.08613e-011
782
root  -6.19845 40.2397 12.5239 178.197 5.89508 -178.652
RightUpLeg  -0.96794 0.670565 -5.8377
RightLeg  7.96382 10.8823 -0.804154
RightFoot  -4.07782 -0.565705 8.4608
RightToes  -5.8209e-011 0 -3.6325e-017
Spine  1.64356 -1.204 -11.964
Spine1  11.9185 -5.14045 11.9392
HEad  -5.0646 6.39903 -2.22181
LeftShoulder1  5.92166 -12.9109 -30.0506
LeftArm  20.2571 18.2864 -35.456
LeftForeArm  -14.2105 -51.1056 -14.9821
LeftHand  -0.246645 0.021 5.37786
RightShoulder  6.11881 12.8373 31.5012
RightArm  12.8595 -9.36534 24.8845
RightForeArm  16.2569 39.0215 8.06173
RightHand  -0.24729 -0.0210522 -5.37781
LeftUpLeg  -0.826672 9.52871 3.96194
LeftLeg  8.77487 10.9348 -3.1329
LeftFoot  -5.47638 0.0382087 -0.10379
LeftToes  -7.45818e-011 -3.37383e-011 1.08613e-011
